<svg width="140" height="40" viewBox="0 0 140 40" fill="none" xmlns="http://www.w3.org/2000/svg">
<path fill-rule="evenodd" clip-rule="evenodd" d="M8.61103 12.1687L19.093 6.12605C19.371 5.95268 19.6921 5.86078 20.0197 5.86078C20.3474 5.86078 20.6685 5.95268 20.9465 6.12605L31.4285 12.1687C31.5225 12.2207 31.6007 12.2974 31.6545 12.3904C31.7084 12.4835 31.736 12.5894 31.7343 12.6969C31.737 12.8046 31.7099 12.911 31.6559 13.0042C31.6019 13.0975 31.5232 13.1739 31.4285 13.2252L30.9558 13.5032C30.674 13.6659 30.3544 13.7516 30.029 13.7516C29.7036 13.7516 29.384 13.6659 29.1022 13.5032L21.2431 8.962V18.6562C21.245 18.7899 21.2107 18.9217 21.1438 19.0375C21.0769 19.1534 20.9799 19.249 20.8631 19.3142L20.4739 19.5459C20.333 19.6272 20.1732 19.67 20.0105 19.67C19.8478 19.67 19.688 19.6272 19.5471 19.5459L19.1578 19.3142C19.041 19.249 18.944 19.1534 18.8771 19.0375C18.8102 18.9217 18.7759 18.7899 18.7778 18.6562V8.94347L10.9465 13.4662C10.6619 13.6203 10.3434 13.701 10.0197 13.701C9.6961 13.701 9.37756 13.6203 9.09296 13.4662L8.5925 13.2252C8.50508 13.1699 8.43516 13.0908 8.39087 12.9973C8.34657 12.9038 8.32972 12.7997 8.34226 12.6969C8.34058 12.5894 8.36814 12.4835 8.42201 12.3904C8.47588 12.2974 8.55403 12.2207 8.6481 12.1687H8.61103ZM23.0503 30.76L30.4646 26.4968V24.0964C30.4613 23.9516 30.4976 23.8087 30.5694 23.683C30.6413 23.5572 30.746 23.4534 30.8724 23.3828L32.3089 22.5579C32.3706 22.5212 32.441 22.5018 32.5128 22.5018C32.5846 22.5018 32.655 22.5212 32.7167 22.5579C32.7792 22.5929 32.8311 22.6441 32.867 22.706C32.9028 22.768 32.9214 22.8385 32.9206 22.9101V27.1826C32.9229 27.3974 32.8674 27.6089 32.7598 27.7948C32.6521 27.9807 32.4964 28.1342 32.3089 28.2391L22.4201 33.9666C22.2361 34.0798 22.0244 34.1397 21.8084 34.1397C21.5925 34.1397 21.3807 34.0798 21.1968 33.9666C21.0086 33.8625 20.8523 33.7092 20.7446 33.5231C20.6368 33.337 20.5817 33.1251 20.5851 32.9101V22.2428C20.5783 21.8128 20.6886 21.389 20.9041 21.0168C21.1196 20.6446 21.4322 20.338 21.8084 20.1297L32.0031 14.2539C32.094 14.1992 32.1981 14.1702 32.3043 14.1702C32.4104 14.1702 32.5145 14.1992 32.6055 14.2539C32.6995 14.306 32.7777 14.3827 32.8316 14.4757C32.8854 14.5688 32.913 14.6747 32.9113 14.7822V18.9342C32.9146 19.079 32.8783 19.2219 32.8065 19.3476C32.7346 19.4734 32.6299 19.5771 32.5035 19.6478L31.067 20.4727C31.0069 20.5137 30.9359 20.5357 30.8631 20.5357C30.7904 20.5357 30.7193 20.5137 30.6592 20.4727C30.5967 20.4377 30.5448 20.3865 30.5089 20.3246C30.4731 20.2626 30.4545 20.1921 30.4553 20.1205V17.9889L23.0411 22.2521L23.0503 30.76ZM9.57489 23.6608V26.4968L16.9892 30.76V27.924L9.57489 23.6608ZM16.9892 22.2336L9.57489 17.9703V20.8156L16.9892 25.0788V22.2336ZM8.02716 14.2354L18.2218 20.1112C18.6043 20.3185 18.9225 20.627 19.1416 21.0029C19.3606 21.3789 19.472 21.8078 19.4637 22.2428V25.0232C19.4657 25.2472 19.4051 25.4674 19.2889 25.6589C19.1727 25.8505 19.0053 26.0058 18.8057 26.1075L17.7955 26.6358L18.9261 27.8035C19.0965 27.9681 19.232 28.1654 19.3243 28.3836C19.4167 28.6017 19.4641 28.8363 19.4637 29.0732V32.9101C19.467 33.1251 19.4119 33.337 19.3042 33.5231C19.1964 33.7092 19.0401 33.8625 18.852 33.9666C18.668 34.0798 18.4563 34.1397 18.2403 34.1397C18.0243 34.1397 17.8126 34.0798 17.6286 33.9666L7.72132 28.2762C7.53622 28.1693 7.38288 28.0152 7.27702 27.8295C7.17116 27.6438 7.11659 27.4334 7.11891 27.2197V14.7637C7.11631 14.6571 7.14247 14.5518 7.19466 14.4588C7.24685 14.3659 7.32313 14.2887 7.41548 14.2354C7.50747 14.1788 7.61333 14.1489 7.72132 14.1489C7.8293 14.1489 7.93517 14.1788 8.02716 14.2354Z" fill="url(#paint0_linear)"/>
<path d="M32.4386 7.59963C29.5682 4.72601 25.79 2.93676 21.7481 2.53683C17.7062 2.1369 13.6506 3.15105 10.2727 5.40643C6.89477 7.6618 4.40351 11.0188 3.22353 14.9053C2.04355 18.7918 2.24787 22.9672 3.80169 26.7199C5.3555 30.4726 8.16263 33.5704 11.7446 35.4851C15.3266 37.3999 19.4618 38.0133 23.4454 37.2206C27.429 36.4279 31.0144 34.2783 33.5905 31.1382C36.1667 27.998 37.5741 24.0617 37.573 20C37.5764 17.6967 37.1246 15.4155 36.2435 13.2874C35.3623 11.1593 34.0693 9.22634 32.4386 7.59963ZM20.0012 4.03496e-06C24.6283 0.000276624 29.1121 1.60492 32.6888 4.54051C36.2654 7.47611 38.7135 11.561 39.6159 16.0993C40.5184 20.6375 39.8194 25.3482 37.638 29.4289C35.4565 33.5095 31.9277 36.7075 27.6528 38.478C23.3778 40.2485 18.6212 40.4819 14.1934 39.1385C9.76563 37.7951 5.94062 34.958 3.37013 31.1106C0.799631 27.2632 -0.357313 22.6436 0.0964227 18.0388C0.550159 13.434 2.5865 9.12899 5.85848 5.85728C7.71486 3.99891 9.91959 2.52499 12.3464 1.51991C14.7732 0.514828 17.3745 -0.00166558 20.0012 4.03496e-06Z" fill="url(#paint1_linear)"/>
<path d="M54.56 13V15.64H50.78V27H48.02V15.64H44.26V13H54.56ZM64.7108 19.74C65.9374 20.4467 66.5508 21.5133 66.5508 22.94C66.5508 24.1267 66.1308 25.1 65.2908 25.86C64.4508 26.62 63.4174 27 62.1908 27H56.2508V13H61.7708C62.9708 13 63.9774 13.3733 64.7908 14.12C65.6174 14.8533 66.0308 15.7933 66.0308 16.94C66.0308 18.1 65.5908 19.0333 64.7108 19.74ZM61.7708 15.58H59.0108V18.66H61.7708C62.1974 18.66 62.5508 18.5133 62.8308 18.22C63.1241 17.9267 63.2708 17.56 63.2708 17.12C63.2708 16.68 63.1308 16.3133 62.8508 16.02C62.5708 15.7267 62.2108 15.58 61.7708 15.58ZM62.1908 24.42C62.6574 24.42 63.0441 24.2667 63.3508 23.96C63.6574 23.64 63.8108 23.24 63.8108 22.76C63.8108 22.2933 63.6574 21.9067 63.3508 21.6C63.0441 21.28 62.6574 21.12 62.1908 21.12H59.0108V24.42H62.1908ZM75.1502 27.28C73.0435 27.28 71.3035 26.58 69.9302 25.18C68.5568 23.78 67.8702 22.0533 67.8702 20C67.8702 17.9333 68.5568 16.2067 69.9302 14.82C71.3035 13.42 73.0435 12.72 75.1502 12.72C76.4168 12.72 77.5835 13.02 78.6502 13.62C79.7302 14.2067 80.5702 15.0067 81.1702 16.02L78.7902 17.4C78.4435 16.7733 77.9502 16.2867 77.3102 15.94C76.6702 15.58 75.9502 15.4 75.1502 15.4C73.7902 15.4 72.6902 15.8267 71.8502 16.68C71.0235 17.5333 70.6102 18.64 70.6102 20C70.6102 21.3467 71.0235 22.4467 71.8502 23.3C72.6902 24.1533 73.7902 24.58 75.1502 24.58C75.9502 24.58 76.6702 24.4067 77.3102 24.06C77.9635 23.7 78.4568 23.2133 78.7902 22.6L81.1702 23.98C80.5702 24.9933 79.7368 25.8 78.6702 26.4C77.6035 26.9867 76.4302 27.28 75.1502 27.28ZM89.5189 27.28C87.4122 27.28 85.6722 26.58 84.2989 25.18C82.9256 23.78 82.2389 22.0533 82.2389 20C82.2389 17.9333 82.9256 16.2067 84.2989 14.82C85.6722 13.42 87.4122 12.72 89.5189 12.72C90.7856 12.72 91.9522 13.02 93.0189 13.62C94.0989 14.2067 94.9389 15.0067 95.5389 16.02L93.1589 17.4C92.8122 16.7733 92.3189 16.2867 91.6789 15.94C91.0389 15.58 90.3189 15.4 89.5189 15.4C88.1589 15.4 87.0589 15.8267 86.2189 16.68C85.3922 17.5333 84.9789 18.64 84.9789 20C84.9789 21.3467 85.3922 22.4467 86.2189 23.3C87.0589 24.1533 88.1589 24.58 89.5189 24.58C90.3189 24.58 91.0389 24.4067 91.6789 24.06C92.3322 23.7 92.8256 23.2133 93.1589 22.6L95.5389 23.98C94.9389 24.9933 94.1056 25.8 93.0389 26.4C91.9722 26.9867 90.7989 27.28 89.5189 27.28ZM106.151 27L101.451 13H104.451L107.871 23.76L111.271 13H114.291L109.571 27H106.151ZM121.01 13C122.357 13 123.49 13.4533 124.41 14.36C125.33 15.2667 125.79 16.38 125.79 17.7C125.79 19.02 125.33 20.1333 124.41 21.04C123.49 21.9467 122.357 22.4 121.01 22.4H118.55V27H115.79V13H121.01ZM121.01 19.82C121.597 19.82 122.083 19.62 122.47 19.22C122.857 18.8067 123.05 18.3 123.05 17.7C123.05 17.0867 122.857 16.58 122.47 16.18C122.083 15.78 121.597 15.58 121.01 15.58H118.55V19.82H121.01ZM135.837 13H138.597V27H136.497L130.497 18.44V27H127.737V13H129.837L135.837 21.54V13Z" fill="black"/>
<defs>
<linearGradient id="paint0_linear" x1="-1.81818" y1="20" x2="41.8182" y2="20" gradientUnits="userSpaceOnUse">
<stop stop-color="#30AD8E"/>
<stop offset="1" stop-color="#6ADFBE"/>
</linearGradient>
<linearGradient id="paint1_linear" x1="-1.81818" y1="20" x2="41.8182" y2="20" gradientUnits="userSpaceOnUse">
<stop stop-color="#30AD8E"/>
<stop offset="1" stop-color="#6ADFBE"/>
</linearGradient>
</defs>
</svg>
