<svg width="140" height="40" viewBox="0 0 140 40" fill="none" xmlns="http://www.w3.org/2000/svg">
<path d="M7.67098 34.0319V12.0273L10.3167 13.3561V34.0471L7.67098 34.0319ZM16.7028 38.8155V16.9856L19.3485 17.0311V38.8155H16.7028ZM0 30.0683V10.0607L2.66089 8.79271V29.4837L0 30.0683ZM17.522 19.3926L0.32691 11.1617L3.42115 9.74943L18.67 17.0084L17.5296 19.3926H17.522ZM34.6696 12.3235L16.9689 2.41458L18.0257 0L35.9639 10.0152L34.6772 12.3235H34.6696ZM18.1169 40L0 30.1139L1.28483 27.8037L19.2687 37.6234L18.1169 40ZM2.06029 11.9362L0 10.0607L18.0257 0.0455581L19.2839 2.41268L2.06029 11.9362ZM33.3524 29.9696V10.9339L35.9981 10.0228V29.9772L33.3524 29.9696ZM18.1967 30.1234L16.9803 27.7771L34.0518 18.9541L35.2683 21.3022L18.1967 30.131V30.1234ZM17.6265 19.7741L16.4861 17.3899L33.972 8.99772L35.1124 11.3819L17.6265 19.7741ZM18.1188 39.9924L16.9613 37.6139L34.2704 27.8815L36 29.9241L18.1188 39.9848V39.9924Z" fill="url(#paint0_linear)"/>
<path d="M54.56 13V15.64H50.78V27H48.02V15.64H44.26V13H54.56ZM64.7108 19.74C65.9374 20.4467 66.5508 21.5133 66.5508 22.94C66.5508 24.1267 66.1308 25.1 65.2908 25.86C64.4508 26.62 63.4174 27 62.1908 27H56.2508V13H61.7708C62.9708 13 63.9774 13.3733 64.7908 14.12C65.6174 14.8533 66.0308 15.7933 66.0308 16.94C66.0308 18.1 65.5908 19.0333 64.7108 19.74ZM61.7708 15.58H59.0108V18.66H61.7708C62.1974 18.66 62.5508 18.5133 62.8308 18.22C63.1241 17.9267 63.2708 17.56 63.2708 17.12C63.2708 16.68 63.1308 16.3133 62.8508 16.02C62.5708 15.7267 62.2108 15.58 61.7708 15.58ZM62.1908 24.42C62.6574 24.42 63.0441 24.2667 63.3508 23.96C63.6574 23.64 63.8108 23.24 63.8108 22.76C63.8108 22.2933 63.6574 21.9067 63.3508 21.6C63.0441 21.28 62.6574 21.12 62.1908 21.12H59.0108V24.42H62.1908ZM75.1502 27.28C73.0435 27.28 71.3035 26.58 69.9302 25.18C68.5568 23.78 67.8702 22.0533 67.8702 20C67.8702 17.9333 68.5568 16.2067 69.9302 14.82C71.3035 13.42 73.0435 12.72 75.1502 12.72C76.4168 12.72 77.5835 13.02 78.6502 13.62C79.7302 14.2067 80.5702 15.0067 81.1702 16.02L78.7902 17.4C78.4435 16.7733 77.9502 16.2867 77.3102 15.94C76.6702 15.58 75.9502 15.4 75.1502 15.4C73.7902 15.4 72.6902 15.8267 71.8502 16.68C71.0235 17.5333 70.6102 18.64 70.6102 20C70.6102 21.3467 71.0235 22.4467 71.8502 23.3C72.6902 24.1533 73.7902 24.58 75.1502 24.58C75.9502 24.58 76.6702 24.4067 77.3102 24.06C77.9635 23.7 78.4568 23.2133 78.7902 22.6L81.1702 23.98C80.5702 24.9933 79.7368 25.8 78.6702 26.4C77.6035 26.9867 76.4302 27.28 75.1502 27.28ZM89.5189 27.28C87.4122 27.28 85.6722 26.58 84.2989 25.18C82.9256 23.78 82.2389 22.0533 82.2389 20C82.2389 17.9333 82.9256 16.2067 84.2989 14.82C85.6722 13.42 87.4122 12.72 89.5189 12.72C90.7856 12.72 91.9522 13.02 93.0189 13.62C94.0989 14.2067 94.9389 15.0067 95.5389 16.02L93.1589 17.4C92.8122 16.7733 92.3189 16.2867 91.6789 15.94C91.0389 15.58 90.3189 15.4 89.5189 15.4C88.1589 15.4 87.0589 15.8267 86.2189 16.68C85.3922 17.5333 84.9789 18.64 84.9789 20C84.9789 21.3467 85.3922 22.4467 86.2189 23.3C87.0589 24.1533 88.1589 24.58 89.5189 24.58C90.3189 24.58 91.0389 24.4067 91.6789 24.06C92.3322 23.7 92.8256 23.2133 93.1589 22.6L95.5389 23.98C94.9389 24.9933 94.1056 25.8 93.0389 26.4C91.9722 26.9867 90.7989 27.28 89.5189 27.28ZM106.151 27L101.451 13H104.451L107.871 23.76L111.271 13H114.291L109.571 27H106.151ZM121.01 13C122.357 13 123.49 13.4533 124.41 14.36C125.33 15.2667 125.79 16.38 125.79 17.7C125.79 19.02 125.33 20.1333 124.41 21.04C123.49 21.9467 122.357 22.4 121.01 22.4H118.55V27H115.79V13H121.01ZM121.01 19.82C121.597 19.82 122.083 19.62 122.47 19.22C122.857 18.8067 123.05 18.3 123.05 17.7C123.05 17.0867 122.857 16.58 122.47 16.18C122.083 15.78 121.597 15.58 121.01 15.58H118.55V19.82H121.01ZM135.837 13H138.597V27H136.497L130.497 18.44V27H127.737V13H129.837L135.837 21.54V13Z" fill="black"/>
<defs>
<linearGradient id="paint0_linear" x1="-1.63636" y1="20" x2="37.6364" y2="20" gradientUnits="userSpaceOnUse">
<stop stop-color="#30AD8E"/>
<stop offset="1" stop-color="#6ADFBE"/>
</linearGradient>
</defs>
</svg>
